<svg width="64" height="64" viewBox="0 0 64 64" fill="none" xmlns="http://www.w3.org/2000/svg">
  <defs>
    <linearGradient id="celestialGearMainGradient" x1="0%" y1="0%" x2="100%" y2="100%">
      <stop offset="0%" style="stop-color:#4A00E0; stop-opacity:1" /> <stop offset="100%" style="stop-color:#8E2DE2; stop-opacity:1" /> </linearGradient>
  </defs>

  <rect width="64" height="64" rx="12" fill="url(#celestialGearMainGradient)"/>

  <circle cx="32" cy="32" r="14" fill="#D2B48C"/> <!-- Tan color for gear body -->
  
  <g transform="translate(32,32)">
    <rect x="-4" y="-19" width="8" height="10" rx="2" fill="#D2B48C" transform="rotate(0)"/>
    <rect x="-4" y="-19" width="8" height="10" rx="2" fill="#D2B48C" transform="rotate(60)"/>
    <rect x="-4" y="-19" width="8" height="10" rx="2" fill="#D2B48C" transform="rotate(120)"/>
    <rect x="-4" y="-19" width="8" height="10" rx="2" fill="#D2B48C" transform="rotate(180)"/>
    <rect x="-4" y="-19" width="8" height="10" rx="2" fill="#D2B48C" transform="rotate(240)"/>
    <rect x="-4" y="-19" width="8" height="10" rx="2" fill="#D2B48C" transform="rotate(300)"/>
  </g>
  
  <circle cx="32" cy="32" r="7" fill="url(#celestialGearMainGradient)" stroke="#B08D57" stroke-width="1.5"/> <!-- Darker tan for border -->

  <path d="M46 14 Q48 16 46 18 Q44 16 46 14 Z" fill="#AFEEEE" opacity="0.9"/> <!-- Pale Turquoise spark -->
  <circle cx="17" cy="49" r="1.8" fill="#FFFFFF" opacity="0.75"/> <!-- White star -->
</svg> 